<svg xmlns="http://www.w3.org/2000/svg" xmlns:xlink="http://www.w3.org/1999/xlink" version="1.1" x="0px" y="0px" viewBox="0 0 2000 2500" style="enable-background:new 0 0 2000 2000;" xml:space="preserve"><g><path d="M772.2548828,1577.6333008c0.1650391,0,0.3310547-0.0014648,0.4970703-0.0039063   c16.5664063-0.2695313,29.7783203-13.9169922,29.5087891-30.4833984l-11.7041016-720.1865234   c-0.2695313-16.565918-13.9433594-29.7548828-30.4833984-29.5083008   c-16.5664063,0.269043-29.7783203,13.9169922-29.5087891,30.4833984l11.7041016,720.1860352   C742.5351563,1564.5214844,755.9130859,1577.6333008,772.2548828,1577.6333008z"/><path d="M1000.7001953,1577.6333008c16.5683594,0,30-13.4316406,30-30V827.4472656c0-16.5683594-13.4316406-30-30-30   s-30,13.4316406-30,30v720.1860352C970.7001953,1564.2016602,984.1318359,1577.6333008,1000.7001953,1577.6333008z"/><path d="M1227.2480469,1577.6293945c0.1669922,0.0029297,0.3310547,0.0039063,0.4970703,0.0039063   c16.3398438,0,29.7197266-13.112793,29.9863281-29.5126953l11.7041016-720.1860352   c0.2695313-16.5664063-12.9423828-30.2143555-29.5087891-30.4833984c-0.1669922-0.0024414-0.3310547-0.0039063-0.4970703-0.0039063   c-16.3398438,0-29.7197266,13.112793-29.9863281,29.512207l-11.7041016,720.1865234   C1197.4697266,1563.7124023,1210.6816406,1577.3598633,1227.2480469,1577.6293945z"/><path d="M1457.8574219,475.5834961h-238.2548828l-80.0126953-187.3652344C1134.8710938,277.168457,1124.0146484,270,1112,270H888   c-12.0146484,0-22.8710938,7.168457-27.5898438,18.2182617l-80.0126953,187.3652344H542.1425781   c-79.0712891,0-143.4003906,64.3291016-143.4003906,143.3999023v43.628418c0,16.5683594,13.4316406,30,30,30h69.6245117   l14.1352539,890.3686523C512.6386719,1664.0698242,578.6513672,1730,659.7724609,1730h680.4550781   c81.1152344,0,147.1230469-65.9223633,147.2685547-147.0048828l14.137207-890.3833008h69.6245117c16.5683594,0,30-13.4316406,30-30   v-43.628418C1601.2578125,539.9125977,1536.9287109,475.5834961,1457.8574219,475.5834961z M907.8095703,330h184.3808594   l62.1699219,145.5834961H845.6396484L907.8095703,330z M1427.5,1582.2539063   c-0.0029297,0.1586914-0.0039063,0.3173828-0.0039063,0.4760742c0,48.1206055-39.1484375,87.2700195-87.2685547,87.2700195   H659.7724609c-48.1210938,0-87.2705078-39.1494141-87.2705078-87.2700195c0-0.1586914-0.0009766-0.3173828-0.0039063-0.4760742   l-14.1240234-889.6420898h883.2519531L1427.5,1582.2539063z M1541.2578125,632.6118164H458.7421875v-13.628418   c0-45.9868164,37.4130859-83.3999023,83.4003906-83.3999023h258.0488281c0.0053711,0,0.0102539,0.0004883,0.015625,0.0004883   h399.5859375c0.0053711,0,0.0102539-0.0004883,0.015625-0.0004883h258.0488281   c45.9873047,0,83.4003906,37.4130859,83.4003906,83.3999023V632.6118164z"/></g><text x="0" y="2015" fill="#000000" font-size="5px" font-weight="bold" font-family="'Helvetica Neue', Helvetica, Arial-Unicode, Arial, Sans-serif">Created by inezza ardelia jassmine</text><text x="0" y="2020" fill="#000000" font-size="5px" font-weight="bold" font-family="'Helvetica Neue', Helvetica, Arial-Unicode, Arial, Sans-serif">from the Noun Project</text></svg>